<svg width="20" height="16" viewBox="0 0 20 16" fill="none" xmlns="http://www.w3.org/2000/svg">
<path d="M1.66675 3.83301L8.47085 8.59588C9.02182 8.98156 9.29731 9.1744 9.59697 9.2491C9.86166 9.31508 10.1385 9.31508 10.4032 9.2491C10.7029 9.1744 10.9783 8.98156 11.5293 8.59588L18.3334 3.83301M5.66675 14.6663H14.3334C15.7335 14.6663 16.4336 14.6663 16.9684 14.3939C17.4388 14.1542 17.8212 13.7717 18.0609 13.3013C18.3334 12.7665 18.3334 12.0665 18.3334 10.6663V5.33301C18.3334 3.93288 18.3334 3.23281 18.0609 2.69803C17.8212 2.22763 17.4388 1.84517 16.9684 1.60549C16.4336 1.33301 15.7335 1.33301 14.3334 1.33301H5.66675C4.26662 1.33301 3.56655 1.33301 3.03177 1.60549C2.56137 1.84517 2.17892 2.22763 1.93923 2.69803C1.66675 3.23281 1.66675 3.93288 1.66675 5.33301V10.6663C1.66675 12.0665 1.66675 12.7665 1.93923 13.3013C2.17892 13.7717 2.56137 14.1542 3.03177 14.3939C3.56655 14.6663 4.26662 14.6663 5.66675 14.6663Z" stroke="#51483F" stroke-width="1.5" stroke-linecap="round" stroke-linejoin="round"/>
</svg>
