<svg width="20" height="20" viewBox="0 0 20 20" fill="none" xmlns="http://www.w3.org/2000/svg">
<path d="M11.7081 5.00033C12.5221 5.15913 13.2701 5.55721 13.8565 6.14361C14.4429 6.73 14.841 7.47805 14.9998 8.29199M11.7081 1.66699C13.3992 1.85486 14.9761 2.61214 16.18 3.8145C17.3839 5.01686 18.1431 6.59283 18.3331 8.28366M8.52228 11.5529C7.52097 10.5516 6.73031 9.41937 6.15031 8.21135C6.10042 8.10744 6.07548 8.05549 6.05631 7.98975C5.98821 7.75612 6.03713 7.46923 6.17881 7.27138C6.21867 7.2157 6.2663 7.16807 6.36156 7.07281C6.6529 6.78147 6.79857 6.6358 6.89381 6.48932C7.25297 5.93691 7.25297 5.22476 6.89381 4.67235C6.79857 4.52587 6.6529 4.3802 6.36156 4.08886L6.19917 3.92647C5.7563 3.4836 5.53487 3.26217 5.29705 3.14188C4.82408 2.90266 4.26553 2.90266 3.79256 3.14188C3.55474 3.26217 3.33331 3.4836 2.89044 3.92647L2.75908 4.05783C2.31773 4.49919 2.09705 4.71986 1.92851 5.01989C1.74149 5.35281 1.60703 5.86989 1.60816 6.25174C1.60918 6.59586 1.67594 6.83105 1.80944 7.30142C2.52692 9.82925 3.88065 12.2145 5.87063 14.2045C7.86061 16.1945 10.2459 17.5482 12.7737 18.2657C13.2441 18.3992 13.4793 18.466 13.8234 18.467C14.2053 18.4681 14.7224 18.3337 15.0553 18.1467C15.3553 17.9781 15.576 17.7574 16.0173 17.3161L16.1487 17.1847C16.5916 16.7419 16.813 16.5204 16.9333 16.2826C17.1725 15.8096 17.1725 15.2511 16.9333 14.7781C16.813 14.5403 16.5916 14.3189 16.1487 13.876L15.9863 13.7136C15.695 13.4223 15.5493 13.2766 15.4028 13.1814C14.8504 12.8222 14.1383 12.8222 13.5858 13.1814C13.4394 13.2766 13.2937 13.4223 13.0024 13.7136C12.9071 13.8089 12.8595 13.8565 12.8038 13.8964C12.6059 14.038 12.319 14.087 12.0854 14.0189C12.0197 13.9997 11.9677 13.9747 11.8638 13.9249C10.6558 13.3449 9.5236 12.5542 8.52228 11.5529Z" stroke="#51483F" stroke-width="1.5" stroke-linecap="round" stroke-linejoin="round"/>
</svg>
