<svg width="116" height="20" viewBox="0 0 116 20" fill="none" xmlns="http://www.w3.org/2000/svg">
<path d="M9.53834 1.10996C9.70914 0.699318 10.2909 0.699318 10.4617 1.10996L12.5278 6.07744C12.5998 6.25056 12.7626 6.36885 12.9495 6.38383L18.3123 6.81376C18.7556 6.8493 18.9354 7.40256 18.5976 7.69189L14.5117 11.1919C14.3693 11.3139 14.3071 11.5053 14.3506 11.6876L15.5989 16.9208C15.7021 17.3534 15.2315 17.6954 14.8519 17.4635L10.2606 14.6592C10.1006 14.5615 9.89938 14.5615 9.73937 14.6592L5.14806 17.4635C4.76851 17.6954 4.29788 17.3534 4.40108 16.9208L5.64939 11.6876C5.69289 11.5053 5.6307 11.3139 5.48831 11.1919L1.40241 7.69189C1.06464 7.40256 1.24441 6.8493 1.68773 6.81376L7.05054 6.38383C7.23744 6.36885 7.40024 6.25056 7.47225 6.07744L9.53834 1.10996Z" fill="#675B50"/>
<path d="M33.5383 1.10996C33.7091 0.699318 34.2909 0.699318 34.4617 1.10996L36.5278 6.07744C36.5998 6.25056 36.7626 6.36885 36.9495 6.38383L42.3123 6.81376C42.7556 6.8493 42.9354 7.40256 42.5976 7.69189L38.5117 11.1919C38.3693 11.3139 38.3071 11.5053 38.3506 11.6876L39.5989 16.9208C39.7021 17.3534 39.2315 17.6954 38.8519 17.4635L34.2606 14.6592C34.1006 14.5615 33.8994 14.5615 33.7394 14.6592L29.1481 17.4635C28.7685 17.6954 28.2979 17.3534 28.4011 16.9208L29.6494 11.6876C29.6929 11.5053 29.6307 11.3139 29.4883 11.1919L25.4024 7.69189C25.0646 7.40256 25.2444 6.8493 25.6877 6.81376L31.0505 6.38383C31.2374 6.36885 31.4002 6.25056 31.4722 6.07744L33.5383 1.10996Z" fill="#675B50"/>
<path d="M57.5383 1.10996C57.7091 0.699318 58.2909 0.699318 58.4617 1.10996L60.5278 6.07744C60.5998 6.25056 60.7626 6.36885 60.9495 6.38383L66.3123 6.81376C66.7556 6.8493 66.9354 7.40256 66.5976 7.69189L62.5117 11.1919C62.3693 11.3139 62.3071 11.5053 62.3506 11.6876L63.5989 16.9208C63.7021 17.3534 63.2315 17.6954 62.8519 17.4635L58.2606 14.6592C58.1006 14.5615 57.8994 14.5615 57.7394 14.6592L53.1481 17.4635C52.7685 17.6954 52.2979 17.3534 52.4011 16.9208L53.6494 11.6876C53.6929 11.5053 53.6307 11.3139 53.4883 11.1919L49.4024 7.69189C49.0646 7.40256 49.2444 6.8493 49.6877 6.81376L55.0505 6.38383C55.2374 6.36885 55.4002 6.25056 55.4722 6.07744L57.5383 1.10996Z" fill="#675B50"/>
<path d="M81.5383 1.10996C81.7091 0.699318 82.2909 0.699318 82.4617 1.10996L84.5278 6.07744C84.5998 6.25056 84.7626 6.36885 84.9495 6.38383L90.3123 6.81376C90.7556 6.8493 90.9354 7.40256 90.5976 7.69189L86.5117 11.1919C86.3693 11.3139 86.3071 11.5053 86.3506 11.6876L87.5989 16.9208C87.7021 17.3534 87.2315 17.6954 86.8519 17.4635L82.2606 14.6592C82.1006 14.5615 81.8994 14.5615 81.7394 14.6592L77.1481 17.4635C76.7685 17.6954 76.2979 17.3534 76.4011 16.9208L77.6494 11.6876C77.6929 11.5053 77.6307 11.3139 77.4883 11.1919L73.4024 7.69189C73.0646 7.40256 73.2444 6.8493 73.6877 6.81376L79.0505 6.38383C79.2374 6.36885 79.4002 6.25056 79.4722 6.07744L81.5383 1.10996Z" fill="#675B50"/>
<path d="M105.538 1.10996C105.709 0.699318 106.291 0.699318 106.462 1.10996L108.528 6.07744C108.6 6.25056 108.763 6.36885 108.949 6.38383L114.312 6.81376C114.756 6.8493 114.935 7.40256 114.598 7.69189L110.512 11.1919C110.369 11.3139 110.307 11.5053 110.351 11.6876L111.599 16.9208C111.702 17.3534 111.231 17.6954 110.852 17.4635L106.261 14.6592C106.101 14.5615 105.899 14.5615 105.739 14.6592L101.148 17.4635C100.769 17.6954 100.298 17.3534 100.401 16.9208L101.649 11.6876C101.693 11.5053 101.631 11.3139 101.488 11.1919L97.4024 7.69189C97.0646 7.40256 97.2444 6.8493 97.6877 6.81376L103.051 6.38383C103.237 6.36885 103.4 6.25056 103.472 6.07744L105.538 1.10996Z" fill="#675B50"/>
</svg>
